<svg xmlns="http://www.w3.org/2000/svg" viewBox="0 0 1200 400" width="1200" height="400">
  <defs>
    <!-- Background gradient: deep cyber blue -->
    <linearGradient id="bg" x1="0%" y1="0%" x2="100%" y2="100%">
      <stop offset="0%"   stop-color="#021428"/>
      <stop offset="40%"  stop-color="#031d3a"/>
      <stop offset="100%" stop-color="#010e1e"/>
    </linearGradient>

    <!-- World map poly gradient -->
    <linearGradient id="mapGrad" x1="0%" y1="0%" x2="100%" y2="100%">
      <stop offset="0%"   stop-color="#0a3a6e"/>
      <stop offset="100%" stop-color="#0d4d8a"/>
    </linearGradient>

    <!-- Glow filters -->
    <filter id="glow2">
      <feGaussianBlur stdDeviation="2.5" result="b"/>
      <feMerge><feMergeNode in="b"/><feMergeNode in="SourceGraphic"/></feMerge>
    </filter>
    <filter id="glow5">
      <feGaussianBlur stdDeviation="5" result="b"/>
      <feMerge><feMergeNode in="b"/><feMergeNode in="b"/><feMergeNode in="SourceGraphic"/></feMerge>
    </filter>
    <filter id="glow10">
      <feGaussianBlur stdDeviation="10" result="b"/>
      <feMerge><feMergeNode in="b"/><feMergeNode in="b"/><feMergeNode in="SourceGraphic"/></feMerge>
    </filter>
    <filter id="blueBloom">
      <feGaussianBlur stdDeviation="14" result="b"/>
      <feMerge><feMergeNode in="b"/><feMergeNode in="b"/><feMergeNode in="b"/><feMergeNode in="SourceGraphic"/></feMerge>
    </filter>

    <clipPath id="clip"><rect width="1200" height="400"/></clipPath>
  </defs>

  <g clip-path="url(#clip)">

    <!-- ── BACKGROUND ── -->
    <rect width="1200" height="400" fill="url(#bg)"/>

    <!-- Subtle radial center light -->
    <radialGradient id="centerLight" cx="55%" cy="50%" r="55%">
      <stop offset="0%"   stop-color="#0a3a7a" stop-opacity="0.4"/>
      <stop offset="100%" stop-color="#010e1e" stop-opacity="0"/>
    </radialGradient>
    <rect width="1200" height="400" fill="url(#centerLight)"/>

    <!-- ════════════════════════════
         CIRCUIT BOARD TRACES
    ════════════════════════════ -->
    <g stroke="#0d4477" stroke-width="1" fill="none" opacity="0.55">
      <!-- Left side circuits -->
      <polyline points="0,320 30,320 30,290 80,290 80,310 130,310"/>
      <polyline points="0,360 20,360 20,340 60,340 60,355 100,355 100,340 150,340"/>
      <polyline points="0,280 15,280 15,260 50,260 50,280 90,280"/>
      <polyline points="0,200 25,200 25,220 55,220 55,200 85,200 85,215 120,215"/>
      <polyline points="0,150 20,150 20,170 45,170 45,150 70,150 70,135 110,135"/>
      <polyline points="0,90  18,90  18,110 44,110 44,90  75,90  75,75 115,75"/>
      <polyline points="0,50  15,50  15,65  40,65  40,45  80,45"/>
      <!-- Circuit nodes left -->
      <circle cx="30"  cy="290" r="2.5" fill="#0d5599" stroke="none"/>
      <circle cx="80"  cy="290" r="2.5" fill="#0d5599" stroke="none"/>
      <circle cx="20"  cy="360" r="2"   fill="#0d5599" stroke="none"/>
      <circle cx="60"  cy="340" r="2"   fill="#0d5599" stroke="none"/>
      <circle cx="25"  cy="200" r="2.5" fill="#0d5599" stroke="none"/>
      <circle cx="55"  cy="220" r="2"   fill="#0d5599" stroke="none"/>
      <circle cx="20"  cy="150" r="2"   fill="#0d5599" stroke="none"/>
      <circle cx="45"  cy="170" r="2"   fill="#0d5599" stroke="none"/>
      <!-- Left panel circles -->
      <circle cx="22" cy="340" r="12" stroke="#0d4477" stroke-width="1" fill="none"/>
      <circle cx="22" cy="340" r="8"  stroke="#0d5599" stroke-width="0.8" fill="none"/>
      <circle cx="22" cy="340" r="3"  fill="#1166bb" stroke="none"/>

      <!-- Right side circuits -->
      <polyline points="1200,60  1175,60  1175,80  1140,80  1140,60  1100,60  1100,45  1065,45"/>
      <polyline points="1200,110 1170,110 1170,130 1135,130 1135,110 1095,110 1095,128 1060,128"/>
      <polyline points="1200,320 1172,320 1172,300 1138,300 1138,320 1098,320 1098,305 1062,305"/>
      <polyline points="1200,370 1168,370 1168,350 1132,350 1132,370 1092,370"/>
      <polyline points="1200,240 1165,240 1165,255 1128,255 1128,240 1090,240 1090,255 1055,255"/>
      <polyline points="1200,185 1162,185 1162,168 1124,168 1124,185 1085,185"/>
      <!-- Circuit nodes right -->
      <circle cx="1175" cy="80"  r="2.5" fill="#0d5599" stroke="none"/>
      <circle cx="1140" cy="60"  r="2.5" fill="#0d5599" stroke="none"/>
      <circle cx="1172" cy="300" r="2"   fill="#0d5599" stroke="none"/>
      <circle cx="1138" cy="320" r="2"   fill="#0d5599" stroke="none"/>
      <circle cx="1165" cy="255" r="2"   fill="#0d5599" stroke="none"/>
      <!-- Right panel circle -->
      <circle cx="1178" cy="200" r="14" stroke="#0d4477" stroke-width="1" fill="none"/>
      <circle cx="1178" cy="200" r="9"  stroke="#0d5599" stroke-width="0.8" fill="none"/>
      <circle cx="1178" cy="200" r="3.5" fill="#1166bb" stroke="none">
        <animate attributeName="opacity" values="1;0.3;1" dur="2s" repeatCount="indefinite"/>
      </circle>

      <!-- Horizontal mid traces -->
      <polyline points="130,310 160,310 160,325 200,325 200,305 240,305"/>
      <polyline points="970,310 1000,310 1000,295 1040,295 1040,315 1062,315"/>
    </g>

    <!-- ════════════════════════════
         WORLD MAP (polygon style)
    ════════════════════════════ -->
    <g fill="url(#mapGrad)" stroke="#1a6aaa" stroke-width="0.8" opacity="0.7" filter="url(#glow2)">
      <!-- North America -->
      <polygon points="95,60 125,52 160,50 195,55 215,65 225,80 235,90 230,108 215,115 200,125 185,130 170,128 155,132 140,140 125,145 110,142 98,135 90,120 88,105 92,85"/>
      <!-- Greenland -->
      <polygon points="205,30 228,25 248,30 255,42 248,52 230,55 212,50 205,40"/>
      <!-- South America -->
      <polygon points="175,170 195,162 215,165 228,178 235,195 240,215 238,238 230,258 218,268 205,270 192,262 182,248 178,228 172,208 170,190"/>
      <!-- Europe -->
      <polygon points="448,48 465,42 488,44 505,52 512,62 518,72 510,82 498,88 485,90 472,88 460,82 450,72 446,60"/>
      <!-- Scandinavia -->
      <polygon points="468,25 480,20 495,22 505,32 500,44 488,46 472,44 464,35"/>
      <!-- UK -->
      <polygon points="440,58 450,54 458,58 455,68 446,70 440,65"/>
      <!-- Africa -->
      <polygon points="460,115 480,108 502,110 520,118 532,132 540,150 545,170 542,195 535,215 525,232 512,242 498,245 482,240 468,228 458,210 452,188 450,165 452,145 455,128"/>
      <!-- Russia / North Asia -->
      <polygon points="500,28 540,22 590,20 650,22 710,25 760,30 800,35 840,38 870,42 885,52 880,65 865,72 840,75 805,72 770,68 730,65 690,62 650,60 610,58 570,55 535,52 510,48 500,38"/>
      <!-- Middle East -->
      <polygon points="530,90 555,85 578,88 592,98 598,112 590,125 572,130 554,128 540,118 532,105"/>
      <!-- South Asia / India -->
      <polygon points="580,108 608,105 630,110 645,122 648,138 640,155 625,165 608,168 592,162 580,148 575,130 576,115"/>
      <!-- SE Asia -->
      <polygon points="660,118 685,112 708,115 722,128 720,142 708,150 692,152 675,148 662,138 656,126"/>
      <!-- China / East Asia -->
      <polygon points="635,60 675,55 715,58 748,65 762,78 758,95 742,105 718,110 692,108 668,102 648,92 638,78"/>
      <!-- Japan -->
      <polygon points="768,65 782,60 795,65 796,78 785,84 772,80 766,72"/>
      <!-- Australia -->
      <polygon points="758,222 790,215 822,218 848,228 862,245 858,265 842,278 818,282 792,278 768,268 754,252 750,235"/>
    </g>

    <!-- Map glow dots (cities / nodes) -->
    <g fill="#55ccff" filter="url(#glow5)">
      <!-- Seoul (Korea highlight) -->
      <circle cx="768" cy="80" r="4" opacity="0.9">
        <animate attributeName="r" values="4;7;4" dur="2s" repeatCount="indefinite"/>
        <animate attributeName="opacity" values="0.9;0.5;0.9" dur="2s" repeatCount="indefinite"/>
      </circle>
      <!-- Major city nodes -->
      <circle cx="200" cy="100" r="2.5" opacity="0.7"/>
      <circle cx="490" cy="68"  r="2.5" opacity="0.7"/>
      <circle cx="690" cy="90"  r="2.5" opacity="0.7"/>
      <circle cx="520" cy="125" r="2"   opacity="0.6"/>
      <circle cx="610" cy="138" r="2"   opacity="0.6"/>
      <circle cx="808" cy="250" r="2"   opacity="0.6"/>
      <circle cx="230" cy="215" r="2"   opacity="0.6"/>
    </g>

    <!-- Map connection lines -->
    <g stroke="#1a88cc" stroke-width="0.8" opacity="0.35" fill="none">
      <line x1="200" y1="100" x2="490" y2="68"/>
      <line x1="490" y1="68"  x2="690" y2="90"/>
      <line x1="690" y1="90"  x2="768" y2="80"/>
      <line x1="690" y1="90"  x2="610" y2="138"/>
      <line x1="230" y1="215" x2="490" y2="68"/>
    </g>
    <!-- Animated travel dot on Seoul line -->
    <circle r="3" fill="#55eeff" filter="url(#glow5)" opacity="0.9">
      <animate attributeName="cx" values="690;768;690" dur="3s" repeatCount="indefinite"/>
      <animate attributeName="cy" values="90;80;90"   dur="3s" repeatCount="indefinite"/>
      <animate attributeName="opacity" values="0;1;0" dur="3s" repeatCount="indefinite"/>
    </circle>

    <!-- ════════════════════════════
         GYEONGBOKGUNG PALACE (center-bottom)
         Simplified silhouette
    ════════════════════════════ -->
    <g transform="translate(490, 220)" fill="#0d4d8a" stroke="#1a7acc" stroke-width="0.8" opacity="0.85" filter="url(#glow2)">
      <!-- Base platform / stairs -->
      <rect x="-90" y="148" width="180" height="10" rx="1"/>
      <rect x="-82" y="138" width="164" height="12" rx="1"/>
      <rect x="-72" y="128" width="144" height="12" rx="1"/>

      <!-- Main hall base -->
      <rect x="-65" y="95" width="130" height="35"/>

      <!-- Main roof (curved Korean style) -->
      <path d="M -80,95 Q -85,78 -70,72 L 0,60 L 70,72 Q 85,78 80,95 Z"/>
      <!-- Roof ridge -->
      <line x1="-80" y1="95" x2="80" y2="95" stroke="#2299dd" stroke-width="1"/>
      <!-- Roof upturned corners -->
      <path d="M -80,95 Q -90,100 -88,108" fill="none" stroke="#1a7acc" stroke-width="1.2"/>
      <path d="M  80,95 Q  90,100  88,108" fill="none" stroke="#1a7acc" stroke-width="1.2"/>

      <!-- Upper small roof -->
      <path d="M -40,60 Q -45,48 -35,44 L 0,35 L 35,44 Q 45,48 40,60 Z"/>
      <line x1="-40" y1="60" x2="40" y2="60" stroke="#2299dd" stroke-width="0.8"/>

      <!-- Columns -->
      <rect x="-52" y="95" width="6" height="35"/>
      <rect x="-32" y="95" width="6" height="35"/>
      <rect x="-12" y="95" width="6" height="35"/>
      <rect x=" 8"  y="95" width="6" height="35"/>
      <rect x=" 28" y="95" width="6" height="35"/>
      <rect x=" 48" y="95" width="6" height="35"/>

      <!-- Side wings -->
      <rect x="-110" y="108" width="50" height="25"/>
      <path d="M -120,108 Q -125,98 -115,94 L -70,88 L -60,108 Z"/>
      <rect x=" 60"  y="108" width="50" height="25"/>
      <path d="M  120,108 Q 125,98 115,94 L 70,88 L 60,108 Z"/>

      <!-- Gate / door -->
      <rect x="-12" y="105" width="24" height="25" rx="0"/>
      <path d="M -12,105 Q 0,98 12,105" fill="#0a3a6e" stroke="#1a7acc" stroke-width="0.8"/>
    </g>

    <!-- Palace ground glow -->
    <ellipse cx="490" cy="370" rx="120" ry="12" fill="#0a3a7a" opacity="0.4" filter="url(#glow5)"/>

    <!-- ════════════════════════════
         HOLOGRAM ORBIT RING (right)
    ════════════════════════════ -->
    <g transform="translate(980, 200)">
      <!-- Outer dashed orbit -->
      <circle cx="0" cy="0" r="155" fill="none" stroke="#1a6aaa" stroke-width="1.2" stroke-dasharray="10 6" opacity="0.5">
        <animateTransform attributeName="transform" type="rotate" from="0" to="360" dur="24s" repeatCount="indefinite"/>
      </circle>
      <!-- Mid ring -->
      <circle cx="0" cy="0" r="130" fill="none" stroke="#1e7ecc" stroke-width="1" stroke-dasharray="5 8" opacity="0.6">
        <animateTransform attributeName="transform" type="rotate" from="360" to="0" dur="18s" repeatCount="indefinite"/>
      </circle>
      <!-- Inner ring -->
      <circle cx="0" cy="0" r="108" fill="none" stroke="#2288dd" stroke-width="1.5" opacity="0.4">
        <animateTransform attributeName="transform" type="rotate" from="0" to="360" dur="12s" repeatCount="indefinite"/>
      </circle>
      <!-- Solid inner disc -->
      <circle cx="0" cy="0" r="88" fill="rgba(5,25,70,0.3)" stroke="#1a66aa" stroke-width="1.5" opacity="0.7"/>

      <!-- HUD data inside ring -->
      <text x="0" y="-55" font-family="monospace" font-size="9" fill="#3399cc" text-anchor="middle" letter-spacing="2" opacity="0.9">THREAT MONITOR</text>
      <text x="0" y="-38" font-family="monospace" font-size="8" fill="#2277aa" text-anchor="middle" opacity="0.7">────────────</text>
      <text x="0" y="-22" font-family="monospace" font-size="8" fill="#55aadd" text-anchor="middle" opacity="0.85">INTRUSIONS: 0</text>
      <text x="0" y="-8"  font-family="monospace" font-size="8" fill="#55aadd" text-anchor="middle" opacity="0.85">PACKETS: 99.2K</text>
      <text x="0" y="8"   font-family="monospace" font-size="8" fill="#55aadd" text-anchor="middle" opacity="0.85">ENCRYPT: ON</text>
      <text x="0" y="24"  font-family="monospace" font-size="8" fill="#ff4455" text-anchor="middle" opacity="0.85">THREAT: HIGH</text>
      <text x="0" y="42"  font-family="monospace" font-size="8" fill="#2277aa" text-anchor="middle" opacity="0.7">────────────</text>
      <text x="0" y="58"  font-family="monospace" font-size="8" fill="#3399cc" text-anchor="middle" letter-spacing="2" opacity="0.9">KST / UTC+9</text>

      <!-- Orbiting glowing dots -->
      <circle cx="0" cy="-130" r="5" fill="#55ccff" filter="url(#glow5)" opacity="0.9">
        <animateTransform attributeName="transform" type="rotate" from="0" to="360" dur="6s" repeatCount="indefinite"/>
      </circle>
      <circle cx="0" cy="-108" r="3.5" fill="#88ddff" filter="url(#glow2)" opacity="0.8">
        <animateTransform attributeName="transform" type="rotate" from="180" to="540" dur="9s" repeatCount="indefinite"/>
      </circle>
      <circle cx="0" cy="155" r="4" fill="#44bbee" filter="url(#glow5)" opacity="0.7">
        <animateTransform attributeName="transform" type="rotate" from="90" to="450" dur="7s" repeatCount="indefinite"/>
      </circle>

      <!-- Pulse ring -->
      <circle cx="0" cy="0" r="88" fill="none" stroke="#2288dd" stroke-width="2" opacity="0">
        <animate attributeName="r"       values="88;160;88"   dur="4s" repeatCount="indefinite"/>
        <animate attributeName="opacity" values="0.6;0;0.6"   dur="4s" repeatCount="indefinite"/>
      </circle>
    </g>

    <!-- ════════════════════════════
         LEFT HUD DATA PANEL
    ════════════════════════════ -->
    <g transform="translate(18, 60)" font-family="monospace" font-size="8" fill="#1e6aaa" opacity="0.85">
      <rect x="0" y="0" width="115" height="110" rx="2" fill="rgba(2,15,40,0.6)" stroke="#0d4477" stroke-width="1"/>
      <text x="8"  y="15"  fill="#2288cc" font-size="9" letter-spacing="1">SYSTEM STATUS</text>
      <line x1="6" y1="20" x2="109" y2="20" stroke="#0d4477" stroke-width="0.8"/>
      <text x="8"  y="33"  fill="#1a77bb">CPU  ▓▓▓▓▓▓░░  72%</text>
      <text x="8"  y="46"  fill="#1a77bb">MEM  ▓▓▓▓▓░░░  61%</text>
      <text x="8"  y="59"  fill="#1a77bb">NET  ▓▓▓▓▓▓▓░  88%</text>
      <text x="8"  y="72"  fill="#55aa44">FIREWALL: ACTIVE</text>
      <text x="8"  y="85"  fill="#55aa44">VPN:      ONLINE</text>
      <text x="8"  y="98"  fill="#55aa44">IDS:      ARMED </text>
    </g>

    <!-- LEFT bottom data panel -->
    <g transform="translate(18, 285)" font-family="monospace" font-size="8" fill="#1e6aaa" opacity="0.8">
      <rect x="0" y="0" width="115" height="75" rx="2" fill="rgba(2,15,40,0.6)" stroke="#0d4477" stroke-width="1"/>
      <text x="8"  y="14"  fill="#2288cc" font-size="9" letter-spacing="1">OPERATOR</text>
      <line x1="6" y1="18" x2="109" y2="18" stroke="#0d4477" stroke-width="0.8"/>
      <text x="8"  y="31"  fill="#1a77bb">ID: OPPRESSOR2045</text>
      <text x="8"  y="44"  fill="#1a77bb">CLR: ALPHA</text>
      <text x="8"  y="57"  fill="#ff4455">MODE: RED TEAM</text>
      <text x="8"  y="70"  fill="#55aa44">AUTH: VERIFIED  </text>
    </g>

    <!-- ════════════════════════════
         MAIN TITLE
    ════════════════════════════ -->
    <!-- Glow underlay -->
    <text x="600" y="158" font-family="'Arial Black', 'Impact', sans-serif" font-size="62"
          font-weight="900" fill="none" stroke="#0044bb" stroke-width="5"
          text-anchor="middle" letter-spacing="6" opacity="0.5" filter="url(#blueBloom)">OPPRESSOR2045</text>
    <!-- Main text -->
    <text x="600" y="158" font-family="'Arial Black', 'Impact', sans-serif" font-size="62"
          font-weight="900" fill="#d8eeff" text-anchor="middle" letter-spacing="6">OPPRESSOR2045
      <animate attributeName="opacity" values="1;0.9;1" dur="5s" repeatCount="indefinite"/>
    </text>

    <!-- Accent lines under title -->
    <line x1="200" y1="172" x2="590" y2="172" stroke="#1a5aaa" stroke-width="1" opacity="0.8"/>
    <line x1="610" y1="172" x2="810" y2="172" stroke="#1a5aaa" stroke-width="1" opacity="0.8"/>
    <circle cx="600" cy="172" r="3" fill="#3388cc" filter="url(#glow2)"/>

    <!-- Subtitle -->
    <text x="600" y="202" font-family="monospace" font-size="13" fill="#4499cc"
          text-anchor="middle" letter-spacing="6">CYBER SECURITY  ·  GAME DEVELOPMENT</text>

    <!-- Status row -->
    <g transform="translate(600,228)" text-anchor="middle">
      <rect x="-270" y="0" width="88" height="22" rx="2" fill="rgba(2,14,45,0.85)" stroke="#0d3a77" stroke-width="1"/>
      <circle cx="-240" cy="11" r="4" fill="#33dd66">
        <animate attributeName="opacity" values="1;0.3;1" dur="1.4s" repeatCount="indefinite"/>
      </circle>
      <text x="-222" y="15" font-family="monospace" font-size="9" fill="#33dd66" letter-spacing="2">ONLINE</text>

      <rect x="-172" y="0" width="115" height="22" rx="2" fill="rgba(2,14,45,0.85)" stroke="#0d3a77" stroke-width="1"/>
      <text x="-114" y="15" font-family="monospace" font-size="9" fill="#3388cc" letter-spacing="1">CLR: ALPHA</text>

      <rect x="-48" y="0" width="120" height="22" rx="2" fill="rgba(30,2,10,0.85)" stroke="#440011" stroke-width="1"/>
      <text x="12" y="15" font-family="monospace" font-size="9" fill="#cc2233" letter-spacing="1">RED TEAM OPS</text>

      <rect x="82" y="0" width="92" height="22" rx="2" fill="rgba(2,14,45,0.85)" stroke="#0d3a77" stroke-width="1"/>
      <text x="128" y="15" font-family="monospace" font-size="9" fill="#3388cc" letter-spacing="1">KST/UTC+9</text>
    </g>

    <!-- ════════════════════════════
         CORNER HUD BRACKETS
    ════════════════════════════ -->
    <g stroke="#1a5aaa" stroke-width="1.8" fill="none" opacity="0.8">
      <path d="M 10,10 L 10,42 L 42,42"/>
      <path d="M 1190,10 L 1190,42 L 1158,42"/>
      <path d="M 10,390 L 10,358 L 42,358"/>
      <path d="M 1190,390 L 1190,358 L 1158,358"/>
    </g>
    <text x="16"  y="26"   font-family="monospace" font-size="9" fill="#1a5aaa" opacity="0.8">SYS://NEXUS.SECURE.OPS</text>
    <text x="1184" y="26"  font-family="monospace" font-size="9" fill="#1a5aaa" opacity="0.8" text-anchor="end">v4.7.2 // STABLE</text>
    <text x="16"  y="382"  font-family="monospace" font-size="9" fill="#1a5aaa" opacity="0.7">ENC: AES-256 ■ TLS 1.3</text>
    <text x="1184" y="382" font-family="monospace" font-size="9" fill="#1a5aaa" opacity="0.7" text-anchor="end">CLEARANCE: ALPHA ■ AUTHORIZED</text>

    <!-- Corner blink dots -->
    <circle cx="18" cy="392" r="2.5" fill="#2266aa">
      <animate attributeName="opacity" values="1;0.1;1" dur="1.1s" repeatCount="indefinite"/>
    </circle>
    <circle cx="1182" cy="392" r="2.5" fill="#2266aa">
      <animate attributeName="opacity" values="0.1;1;0.1" dur="1.1s" repeatCount="indefinite"/>
    </circle>

    <!-- SCAN LINE -->
    <rect x="0" width="1200" height="2" fill="rgba(40,140,255,0.12)">
      <animate attributeName="y" values="-2;402" dur="6s" repeatCount="indefinite"/>
      <animate attributeName="opacity" values="0;0.7;0.7;0" dur="6s" repeatCount="indefinite"/>
    </rect>

    <!-- BOTTOM BINARY STREAM -->
    <text font-family="monospace" font-size="8" fill="#0a2044" y="397" opacity="0.9">
      01001111 01010000 01010000 01010010 01000101 01010011 01010011 01001111 01010010 00110010 00110000 00110100 00110101 01000011 01011001 01000010 01000101 01010010 01010011 01000101 01000011 01010101 01010010 01001001 01010100 01011001 00100000 01001011 01010011 01010100
      <animate attributeName="x" values="0;-600;0" dur="22s" repeatCount="indefinite"/>
    </text>

  </g>
</svg>
